<?xml version="1.0" encoding="UTF-8"?>
<svg xmlns="http://www.w3.org/2000/svg" xmlns:xlink="http://www.w3.org/1999/xlink" width="854" height="480" viewBox="0 0 854 480">
<defs>
<g>
<g id="glyph-0-0">
<path d="M 3.210938 -2.898438 C 3.210938 -2.699219 3.171875 -2.523438 3.09375 -2.367188 C 3.015625 -2.210938 2.90625 -2.085938 2.765625 -1.984375 C 2.628906 -1.882812 2.480469 -1.808594 2.3125 -1.761719 C 2.148438 -1.714844 1.976562 -1.691406 1.789062 -1.691406 L 1.359375 -1.691406 L 1.359375 -0.523438 C 1.359375 -0.460938 1.371094 -0.40625 1.390625 -0.355469 C 1.410156 -0.308594 1.453125 -0.273438 1.519531 -0.246094 C 1.550781 -0.234375 1.609375 -0.222656 1.691406 -0.210938 C 1.773438 -0.199219 1.847656 -0.195312 1.917969 -0.191406 L 1.917969 0 L 0.265625 0 L 0.265625 -0.191406 C 0.308594 -0.195312 0.371094 -0.203125 0.453125 -0.210938 C 0.535156 -0.21875 0.59375 -0.230469 0.625 -0.246094 C 0.679688 -0.269531 0.71875 -0.304688 0.746094 -0.351562 C 0.769531 -0.394531 0.78125 -0.453125 0.78125 -0.523438 L 0.78125 -3.300781 C 0.78125 -3.363281 0.773438 -3.421875 0.753906 -3.472656 C 0.734375 -3.523438 0.695312 -3.5625 0.625 -3.585938 C 0.558594 -3.609375 0.488281 -3.625 0.421875 -3.636719 C 0.355469 -3.648438 0.296875 -3.652344 0.246094 -3.65625 L 0.246094 -3.847656 L 2.003906 -3.847656 C 2.363281 -3.847656 2.652344 -3.761719 2.878906 -3.589844 C 3.101562 -3.417969 3.210938 -3.1875 3.210938 -2.898438 M 2.386719 -2.242188 C 2.449219 -2.332031 2.488281 -2.421875 2.507812 -2.511719 C 2.53125 -2.605469 2.539062 -2.691406 2.539062 -2.765625 C 2.539062 -2.867188 2.527344 -2.972656 2.503906 -3.078125 C 2.476562 -3.1875 2.4375 -3.277344 2.375 -3.359375 C 2.3125 -3.445312 2.230469 -3.507812 2.125 -3.554688 C 2.023438 -3.605469 1.894531 -3.628906 1.742188 -3.628906 L 1.359375 -3.628906 L 1.359375 -1.925781 L 1.636719 -1.925781 C 1.832031 -1.925781 1.988281 -1.957031 2.113281 -2.015625 C 2.234375 -2.078125 2.324219 -2.152344 2.386719 -2.242188 Z "/>
</g>
<g id="glyph-0-1">
<path d="M 3.953125 -1.902344 C 3.953125 -1.574219 3.890625 -1.289062 3.769531 -1.050781 C 3.644531 -0.808594 3.484375 -0.613281 3.289062 -0.457031 C 3.089844 -0.304688 2.867188 -0.191406 2.617188 -0.113281 C 2.371094 -0.0390625 2.113281 0 1.851562 0 L 0.253906 0 L 0.253906 -0.191406 C 0.308594 -0.191406 0.375 -0.199219 0.460938 -0.207031 C 0.542969 -0.21875 0.597656 -0.230469 0.625 -0.242188 C 0.679688 -0.265625 0.71875 -0.300781 0.746094 -0.347656 C 0.769531 -0.390625 0.78125 -0.449219 0.78125 -0.511719 L 0.78125 -3.289062 C 0.78125 -3.351562 0.769531 -3.40625 0.75 -3.457031 C 0.730469 -3.503906 0.6875 -3.542969 0.625 -3.574219 C 0.570312 -3.601562 0.511719 -3.621094 0.445312 -3.632812 C 0.378906 -3.644531 0.324219 -3.652344 0.277344 -3.65625 L 0.277344 -3.847656 L 1.957031 -3.847656 C 2.191406 -3.847656 2.417969 -3.8125 2.640625 -3.742188 C 2.867188 -3.671875 3.0625 -3.574219 3.226562 -3.453125 C 3.453125 -3.292969 3.632812 -3.082031 3.761719 -2.820312 C 3.886719 -2.5625 3.953125 -2.253906 3.953125 -1.902344 M 3.289062 -1.902344 C 3.289062 -2.160156 3.253906 -2.394531 3.183594 -2.605469 C 3.117188 -2.8125 3.015625 -2.996094 2.882812 -3.148438 C 2.757812 -3.296875 2.605469 -3.414062 2.425781 -3.5 C 2.242188 -3.585938 2.039062 -3.628906 1.816406 -3.628906 C 1.742188 -3.628906 1.660156 -3.625 1.566406 -3.625 C 1.472656 -3.621094 1.40625 -3.617188 1.359375 -3.617188 L 1.359375 -0.660156 C 1.359375 -0.496094 1.40625 -0.378906 1.503906 -0.316406 C 1.597656 -0.253906 1.746094 -0.222656 1.945312 -0.222656 C 2.175781 -0.222656 2.375 -0.261719 2.546875 -0.34375 C 2.71875 -0.425781 2.859375 -0.539062 2.964844 -0.683594 C 3.078125 -0.835938 3.160156 -1.011719 3.210938 -1.210938 C 3.261719 -1.410156 3.289062 -1.640625 3.289062 -1.902344 Z "/>
</g>
</g>
</defs>
<g fill="rgb(100%, 100%, 100%)" fill-opacity="1">
<use xlink:href="#glyph-0-0" x="30" y="25.094727"/>
<use xlink:href="#glyph-0-1" x="33" y="25.094727"/>
</g>
</svg>
